<?xml version="1.0" encoding="UTF-8"?>
<svg width="47px" height="47px" viewBox="0 0 47 47" version="1.1" xmlns="http://www.w3.org/2000/svg" xmlns:xlink="http://www.w3.org/1999/xlink">
    <!-- Generator: Sketch 46 (44423) - http://www.bohemiancoding.com/sketch -->
    <title>Page 1</title>
    <desc>Created with Sketch.</desc>
    <defs>
        <polygon id="path-1" points="46.7357408 47 0.000163920712 47 0.000163920712 0.265053521 46.7357408 0.265053521"></polygon>
    </defs>
    <g id="Home" stroke="none" stroke-width="1" fill="none" fill-rule="evenodd">
        <g id="Umbrella---Home" transform="translate(-206.000000, -2032.000000)">
            <g id="Page-1" transform="translate(206.000000, 2032.000000)">
                <g id="Group-3">
                    <mask id="mask-2" fill="white">
                        <use xlink:href="#path-1"></use>
                    </mask>
                    <g id="Clip-2"></g>
                    <path d="M23.3681352,2.91294085 C17.7777831,2.91294085 12.5415859,5.08156056 8.62536056,9.01963099 C4.74090986,12.9252648 2.6179662,18.1118141 2.6484169,23.6253775 C2.6484169,35.057631 11.9431634,44.3523775 23.3681352,44.3523775 C34.793107,44.3523775 44.0878535,35.057631 44.0878535,23.6326592 C44.0878535,12.2076873 34.793107,2.91294085 23.3681352,2.91294085 M23.3681352,47.0002648 C10.4828535,47.0002648 0.000529577465,36.5172789 0.000529577465,23.6326592 C-0.0338929577,17.4167437 2.36310704,11.5609408 6.74800845,7.15220845 C11.1646845,2.71103944 17.0674873,0.265053521 23.3681352,0.265053521 C36.2527549,0.265053521 46.7357408,10.7473775 46.7357408,23.6326592 C46.7357408,36.5172789 36.2527549,47.0002648 23.3681352,47.0002648" id="Fill-1" fill="#3893FF" mask="url(#mask-2)"></path>
                </g>
                <path d="M19.8886807,19.3046361 L17.3695652,19.3046361 L17.3695652,23.5325222 L19.8886807,23.5325222 L19.8886807,35.7608696 L24.7977261,35.7608696 L24.7977261,23.4024334 L28.2211394,23.4024334 L28.6086957,19.3046361 L24.7977261,19.3046361 L24.7977261,17.0280821 C24.7977261,15.9873717 25.056097,15.5971053 25.9603948,15.5971053 L28.6086957,15.5971053 L28.6086957,11.2391304 L25.1852824,11.2391304 C21.5034983,11.2391304 19.8886807,12.8652405 19.8886807,15.9873717 C19.8886807,18.7192365 19.8886807,19.3046361 19.8886807,19.3046361" id="Fill-4" fill="#3893FF"></path>
            </g>
        </g>
    </g>
</svg>