<?xml version="1.0" encoding="UTF-8"?>
<svg width="42px" height="42px" viewBox="0 0 42 42" version="1.1" xmlns="http://www.w3.org/2000/svg" xmlns:xlink="http://www.w3.org/1999/xlink">
    <!-- Generator: Sketch 46.2 (44496) - http://www.bohemiancoding.com/sketch -->
    <title>instagramLogo</title>
    <desc>Created with Sketch.</desc>
    <defs></defs>
    <g id="Page-1" stroke="none" stroke-width="1" fill="none" fill-rule="evenodd">
        <g id="FOOTER" transform="translate(-237.000000, -131.000000)" fill="#3893FF">
            <g id="instagramLogo" transform="translate(237.000000, 131.000000)">
                <path d="M20.8820169,2.36619718 C15.8863831,2.36619718 11.2072282,4.30411268 7.70762253,7.82323944 C4.23641126,11.3133803 2.33931267,15.948169 2.36652394,20.8751831 C2.36652394,31.0912394 10.6724676,39.3971831 20.8820169,39.3971831 C31.0915662,39.3971831 39.3975099,31.0912394 39.3975099,20.8816901 C39.3975099,10.6721408 31.0915662,2.36619718 20.8820169,2.36619718 M20.8820169,41.7633803 C9.36750986,41.7633803 0.000326757098,32.3956056 0.000326757098,20.8816901 C-0.0304338063,15.3270423 2.11156619,10.0941972 6.02998873,6.15447887 C9.97680563,2.18577465 15.2516507,0 20.8820169,0 C32.3959324,0 41.763707,9.3671831 41.763707,20.8816901 C41.763707,32.3956056 32.3959324,41.7633803 20.8820169,41.7633803" id="Fill-1"></path>
                <path d="M28.5633803,16.3901408 C28.5633803,16.8746479 28.2,17.1169014 27.8366197,17.1169014 L25.5957746,17.1169014 C25.1112676,17.1169014 24.8690141,16.7535211 24.8690141,16.3901408 L24.8690141,14.1492958 C24.8690141,13.6647887 25.2323944,13.4225352 25.5957746,13.4225352 L27.8366197,13.4225352 C28.3211268,13.4225352 28.5633803,13.7859155 28.5633803,14.1492958 L28.5633803,16.3901408 Z M28.5633803,27.8971831 C28.5633803,28.3816901 28.2,28.6239437 27.8366197,28.6239437 L14.0887324,28.6239437 C13.6042254,28.6239437 13.3619718,28.2605634 13.3619718,27.8971831 L13.3619718,19.4788732 L15.1183099,19.4788732 C14.8760563,19.9633803 14.7549296,20.4478873 14.7549296,20.9929577 C14.7549296,24.4450704 17.4802817,27.1704225 20.9323944,27.1704225 C24.384507,27.1704225 27.1098592,24.4450704 27.1098592,20.9929577 C27.1098592,20.5084507 26.9887324,19.9028169 26.8676056,19.4788732 L28.6239437,19.4788732 L28.5633803,27.8971831 Z M20.9323944,17.1774648 C23.0521127,17.1774648 24.7478873,18.8126761 24.7478873,20.9929577 C24.7478873,23.1126761 23.1126761,24.8084507 20.9323944,24.8084507 C18.8126761,24.8084507 17.1169014,23.1732394 17.1169014,20.9929577 C17.1169014,18.8732394 18.8126761,17.1774648 20.9323944,17.1774648 L20.9323944,17.1774648 Z M28.5633803,11 L13.2408451,11 C11.9084507,11 11,12.0901408 11,13.2408451 L11,28.5633803 C11,29.8957746 12.0901408,30.8042254 13.2408451,30.8042254 L28.5633803,30.8042254 C29.8957746,30.8042254 30.8042254,29.7140845 30.8042254,28.5633803 L30.8042254,13.2408451 C30.9253521,12.0901408 29.8352113,11 28.5633803,11 L28.5633803,11 Z" id="Fill-3"></path>
            </g>
        </g>
    </g>
</svg>