<?xml version="1.0" encoding="UTF-8"?>
<svg width="173px" height="45px" viewBox="0 0 173 45" version="1.1" xmlns="http://www.w3.org/2000/svg" xmlns:xlink="http://www.w3.org/1999/xlink">
    <!-- Generator: Sketch 46.2 (44496) - http://www.bohemiancoding.com/sketch -->
    <title>pharmaLogo</title>
    <desc>Created with Sketch.</desc>
    <defs></defs>
    <g id="Page-1" stroke="none" stroke-width="1" fill="none" fill-rule="evenodd">
        <g id="FOOTER" transform="translate(-1114.000000, -137.000000)" fill-rule="nonzero" fill="#FFFFFF">
            <g id="pharmaLogo" transform="translate(1114.000000, 137.000000)">
                <path d="M80.1785116,12.8612717 L80.1785116,26.7052023 L92.8214884,26.7052023 L92.8214884,12.9479769 C90.8786457,13.5549133 88.9937982,14.0751445 86.8189742,14.0751445 C84.5861549,14.0751445 82.2083473,13.5260116 80.1785116,12.8612717 Z M86.5,0 C82.6433121,0 79.5115655,2.65895954 79.5115655,5.95375723 C79.5115655,9.24855491 82.6433121,11.8786127 86.5,11.8786127 C90.3566879,11.8786127 93.4594368,9.21965318 93.4594368,5.92485549 C93.4594368,2.6300578 90.3566879,0 86.5,0 Z M32.5933624,34.1907514 L28.0697285,44.6820809 L32.5353671,44.6820809 L32.9993295,43.4682081 L37.3779752,43.4682081 L37.81294,44.6820809 L42.2785786,44.6820809 L37.725947,34.1907514 L32.5933624,34.1907514 L32.5933624,34.1907514 Z M33.8982568,40.9248555 L35.1741535,37.3699422 L35.2031512,37.3699422 L36.4500503,40.9248555 L33.8982568,40.9248555 Z M121.848139,40.9248555 L121.848139,40.9248555 L119.470332,34.1907514 L114.859705,34.1907514 L119.61532,44.6820809 L124.022963,44.6820809 L128.778579,34.1907514 L124.167952,34.1907514 L121.848139,40.9248555 Z M23.169125,37.8612717 L18.4425075,37.8612717 L18.4425075,34.1907514 L14.2378478,34.1907514 L14.2378478,44.6820809 L18.4425075,44.6820809 L18.4425075,40.4913295 L23.169125,40.4913295 L23.169125,44.6820809 L27.3737848,44.6820809 L27.3737848,34.1907514 L23.169125,34.1907514 L23.169125,37.8612717 Z M168.79534,34.1907514 L168.79534,44.6820809 L173,44.6820809 L173,34.1907514 L168.79534,34.1907514 L168.79534,34.1907514 Z M151.773718,38.2369942 L146.757124,37.5144509 C146.351157,37.4566474 146.206168,37.2543353 146.206168,36.9653179 C146.206168,36.5317919 146.641133,36.2138728 147.888032,36.2138728 C148.351995,36.2138728 148.844955,36.2716763 149.192927,36.416185 C149.569896,36.5895954 149.830875,36.849711 149.830875,37.2543353 L154.702481,37.2543353 C154.557492,35.0289017 152.61465,33.8150289 147.859035,33.8150289 C144.408314,33.8150289 141.711532,34.5375723 141.711532,37.2543353 C141.711532,38.7283237 142.552464,39.9132948 144.611297,40.2023121 L149.424908,40.9248555 C149.975863,41.0115607 150.178847,41.3294798 150.178847,41.6184971 C150.178847,42.1098266 149.830875,42.4566474 148.496983,42.4566474 C147.859035,42.4566474 147.395072,42.3699422 147.076098,42.2254335 C146.757124,42.0809249 146.641133,41.849711 146.612135,41.4739884 L141.566544,41.4739884 C141.566544,44.566474 145.104257,45 148.351995,45 C153.078612,45 155.224438,43.7861272 155.224438,41.2427746 C155.195441,39.5086705 153.861549,38.5549133 151.773718,38.2369942 Z M8.67029836,34.1907514 L0,34.1907514 L0,44.6820809 L4.20465974,44.6820809 L4.20465974,41.416185 L8.69929601,41.416185 C11.6860543,41.416185 12.7589675,39.8554913 12.7589675,37.8323699 C12.7879651,35.5202312 11.6570567,34.1907514 8.67029836,34.1907514 Z M6.93043916,38.8728324 L4.23365739,38.8728324 L4.23365739,36.6763006 L6.93043916,36.6763006 C7.97435468,36.6763006 8.38032182,36.9942197 8.38032182,37.7745665 C8.38032182,38.5549133 7.97435468,38.8728324 6.93043916,38.8728324 Z M155.630406,36.8208092 L159.516091,36.8208092 L159.516091,44.6820809 L163.720751,44.6820809 L163.720751,36.8208092 L167.635434,36.8208092 L167.635434,34.1618497 L155.630406,34.1618497 L155.630406,36.8208092 Z M94.7063359,44.6820809 L98.9109956,44.6820809 L98.9109956,34.1907514 L94.7063359,34.1907514 L94.7063359,44.6820809 Z M55.3565203,41.1560694 C55.298525,40.2312139 54.8055649,39.7109827 54.1676165,39.5375723 L54.1676165,39.5086705 C55.3855179,39.1618497 55.8204827,38.0924855 55.8204827,37.1098266 C55.8204827,35.9537572 55.1535367,34.9421965 54.3706001,34.566474 C53.790647,34.2774566 53.0657057,34.1907514 51.8478042,34.1907514 L43.0035199,34.1907514 L43.0035199,44.6820809 L47.2371773,44.6820809 L47.2371773,41.4450867 L50.194938,41.4450867 C50.9778746,41.4450867 51.2388535,41.9075145 51.2968488,42.716763 C51.3838418,43.9306358 51.3838418,44.3930636 51.52883,44.6820809 L56.1394569,44.6820809 C55.8494804,44.3641618 55.6464968,43.9306358 55.5885015,43.4682081 L55.3565203,41.1560694 Z M50.1659403,38.8150289 L47.2081797,38.8150289 L47.2081797,36.8208092 L50.107945,36.8208092 C50.8038887,36.8208092 51.3258465,36.9942197 51.3258465,37.8034682 C51.3258465,38.4971098 50.9778746,38.8150289 50.1659403,38.8150289 Z M78.0616829,34.1907514 L73.5380489,44.6820809 L78.0036876,44.6820809 L78.4386524,43.4682081 L82.817298,43.4682081 L83.2812605,44.6820809 L87.7468991,44.6820809 L83.2232652,34.1907514 L78.0616829,34.1907514 L78.0616829,34.1907514 Z M79.3665773,40.9248555 L80.6134764,37.3699422 L80.642474,37.3699422 L81.8893731,40.9248555 L79.3665773,40.9248555 Z M110.278076,40 L110.249078,40 L105.986423,34.1618497 L101.172813,34.1618497 L101.172813,44.6531792 L105.203486,44.6531792 L105.203486,38.7861272 L105.232484,38.7861272 L109.698123,44.6531792 L114.337747,44.6531792 L114.337747,34.1618497 L110.307073,34.1618497 L110.307073,40 L110.278076,40 Z M129.358532,44.6820809 L140.696614,44.6820809 L140.696614,42.1098266 L133.592189,42.1098266 L133.592189,40.6936416 L140.203654,40.6936416 L140.203654,38.1213873 L133.592189,38.1213873 L133.592189,36.7052023 L140.696614,36.7052023 L140.696614,34.1618497 L129.358532,34.1618497 L129.358532,44.6820809 Z M65.1577271,40.2890173 L65.1577271,40.2890173 L63.3888703,34.1907514 L57.473349,34.1907514 L57.473349,44.6820809 L61.3010392,44.6820809 L61.3010392,37.1676301 L61.3300369,37.1676301 L63.5628562,44.6820809 L66.7525981,44.6820809 L68.9854174,37.1676301 L69.014415,37.1676301 L69.014415,44.6820809 L72.8131076,44.6820809 L72.8131076,34.1907514 L66.8975863,34.1907514 L65.1577271,40.2890173 Z" id="Shape"></path>
            </g>
        </g>
    </g>
</svg>