<?xml version="1.0" encoding="UTF-8"?>
<svg width="524px" height="159px" viewBox="0 0 524 159" version="1.1" xmlns="http://www.w3.org/2000/svg" xmlns:xlink="http://www.w3.org/1999/xlink">
    <!-- Generator: Sketch 46.2 (44496) - http://www.bohemiancoding.com/sketch -->
    <title>umbrellaLogo</title>
    <desc>Created with Sketch.</desc>
    <defs>
        <polygon id="path-1" points="148.6693 0.201 0.489222559 0.201 0.489222559 106.36 148.6693 106.36"></polygon>
    </defs>
    <g id="Page-1" stroke="none" stroke-width="1" fill="none" fill-rule="evenodd">
        <g id="umbrellaLogo" transform="translate(0.000000, -1.000000)">
            <path d="M523.5107,88.8074 C523.5107,94.3764 522.4917,98.7354 520.4727,101.8584 C518.4507,104.9874 516.0527,107.2544 513.2627,108.6394 C510.3357,110.1764 507.2357,111.1094 503.9687,111.4584 C500.6917,111.8104 497.8007,111.9764 495.2967,111.9764 C490.2817,111.9764 485.8907,110.6174 482.1297,107.9134 C478.3667,105.1974 476.4897,100.7054 476.4897,94.4514 C476.4897,88.5944 478.1947,84.4214 481.6077,81.9084 C485.0177,79.4044 489.3697,77.7334 494.6697,76.8984 C495.3637,76.8984 496.2017,76.7884 497.1787,76.5804 C498.1507,76.3774 499.2677,76.2014 500.5177,76.0544 C506.6467,75.2244 509.7127,73.4174 509.7127,70.6274 C509.7127,68.5354 508.6377,67.1794 506.4717,66.5464 C504.3127,65.9194 502.3337,65.6094 500.5177,65.6094 C498.5637,65.6094 496.8257,65.8874 495.2967,66.4454 C493.7567,67.0034 492.6447,68.0464 491.9477,69.5784 L477.9527,69.5784 C478.5067,65.2674 480.4587,61.7084 483.7957,58.9214 C487.5607,55.7184 492.9247,54.1134 499.8927,54.1134 C507.6917,54.1134 513.5397,55.4374 517.4447,58.0814 C521.4857,60.8714 523.5107,64.7764 523.5107,69.7924 L523.5107,88.8074 Z M491.5327,89.4274 C490.5587,90.9674 490.0777,92.4974 490.0777,94.0324 C490.0777,96.1194 490.6937,97.7894 491.9477,99.0474 C493.2087,100.1584 495.0137,100.7054 497.3857,100.7054 C501.2827,100.7054 504.3477,99.6054 506.5797,97.3744 C508.8067,95.1474 509.9227,92.0874 509.9227,88.1844 L509.9227,82.9554 C507.9677,83.9274 505.2537,84.8294 501.7767,85.6704 L496.9667,86.7124 C494.4627,87.4134 492.6447,88.3234 491.5327,89.4274 L491.5327,89.4274 Z M471.8767,45.9644 C471.8767,44.0174 471.1747,42.3784 469.7867,41.0554 C468.3887,39.7354 466.7167,39.0704 464.7697,39.0704 L457.2407,39.0704 L457.2407,110.9344 L471.8767,110.9344 L471.8767,45.9644 Z M450.4237,45.9644 C450.4237,44.0174 449.7227,42.3784 448.3257,41.0554 C446.9347,39.7354 445.2657,39.0704 443.3147,39.0704 L435.7877,39.0704 L435.7877,110.9344 L450.4237,110.9344 L450.4237,45.9644 Z M430.5887,85.4624 C430.5887,86.1594 430.5147,86.6484 430.3807,86.9274 L394.2257,86.9274 C394.3637,91.2474 395.4107,94.4514 397.3587,96.5414 C399.1727,98.7674 401.8867,99.8804 405.5137,99.8804 C407.8797,99.8804 409.9027,99.3914 411.5697,98.4154 C411.9877,98.2814 412.3707,98.0334 412.7227,97.6854 C413.0687,97.3384 413.4517,96.9554 413.8737,96.5414 C414.0077,96.1194 414.5327,95.5644 415.4367,94.8674 C416.3417,94.1704 417.6317,93.8124 419.3027,93.8124 L429.7497,93.8124 C428.2187,99.6704 425.2887,104.1224 420.9727,107.1824 C416.6577,110.3824 411.2227,111.9764 404.6727,111.9764 C396.7327,111.9764 390.5317,109.4074 386.0757,104.2634 C381.6157,99.2534 379.3887,92.0874 379.3887,82.7494 C379.3887,73.8334 381.5457,66.8644 385.8697,61.8454 C390.3247,56.6924 396.5267,54.1134 404.4637,54.1134 C412.8217,54.1134 419.3027,56.6214 423.9017,61.6404 C428.3537,66.7974 430.5887,73.9644 430.5887,83.1644 L430.5887,84.6244 L430.5887,85.4624 Z M397.3587,69.1594 C395.4107,71.1104 394.3637,73.9004 394.2257,77.5184 L415.5427,77.5184 C415.2637,73.7614 414.2897,70.9724 412.6137,69.1594 C410.8007,67.2084 408.2267,66.2364 404.8867,66.2364 C401.8177,66.2364 399.3127,67.2084 397.3587,69.1594 L397.3587,69.1594 Z M377.8097,55.3764 L375.7207,55.3764 C371.9627,55.3764 368.3037,55.8574 364.7477,56.8364 C361.1997,57.8134 358.0927,59.3354 355.4537,61.4264 C352.6627,63.6624 350.4667,66.6204 348.8667,70.3134 C347.2627,74.0014 346.4617,78.5664 346.4617,84.0014 L346.4617,110.9344 L361.0897,110.9344 L361.0897,82.3254 C361.0897,78.1504 362.0647,75.0814 364.0177,73.1344 C365.9677,71.1834 368.9647,70.2084 373.0077,70.2084 L377.8097,70.2084 L377.8097,55.3764 Z M335.5927,62.2664 C339.7717,67.6974 341.8587,74.7364 341.8587,83.3674 C341.8587,92.0074 339.7717,99.0474 335.5927,104.4744 C333.5047,107.1124 330.6817,109.0234 327.1267,110.2014 C323.5757,111.3854 320.0537,111.9764 316.5727,111.9764 C309.8867,111.9764 303.6837,110.2444 297.9777,106.7634 C292.2607,103.2904 289.4097,96.6134 289.4097,86.7124 L289.4097,38.8604 L296.5097,38.8604 C298.4647,38.8604 300.1297,39.5574 301.5327,40.9484 C302.9217,42.3444 303.6157,44.0174 303.6157,45.9644 L303.6157,62.6834 C305.1517,60.0424 307.3797,57.8784 310.3027,56.2024 C312.8137,54.8134 315.8787,54.1134 319.4987,54.1134 C326.0457,54.1134 331.4107,56.8364 335.5927,62.2664 L335.5927,62.2664 Z M306.7537,70.8314 C304.6657,73.7614 303.6157,77.7334 303.6157,82.7494 C303.6157,88.5944 304.5927,92.8494 306.5457,95.4894 C308.6317,98.4154 311.5557,99.8804 315.3217,99.8804 C319.2197,99.8804 322.2137,98.4154 324.3027,95.4894 C326.3947,92.5634 327.4417,88.3234 327.4417,82.7494 C327.4417,77.7334 326.3947,73.8334 324.3027,71.0394 C322.2137,68.1204 319.3587,66.6554 315.7437,66.6554 C311.8367,66.6554 308.8417,68.0464 306.7537,70.8314 L306.7537,70.8314 Z M283.0917,78.3634 C283.0917,68.6064 280.5147,62.1314 275.3607,58.9214 C270.2117,55.7184 264.5647,54.1134 258.4347,54.1134 C255.3667,54.2524 252.4087,54.7114 249.5567,55.4754 C246.6977,56.2424 244.2257,57.5334 242.1327,59.3354 C239.6297,57.2484 236.8397,55.8574 233.7747,55.1604 C230.7147,54.4614 227.5807,54.1134 224.3717,54.1134 C218.3817,54.3974 212.9107,56.1384 207.9697,59.3354 C203.0197,62.5424 200.5507,68.8874 200.5507,78.3634 L200.5507,110.9344 L215.1777,110.9344 L215.1777,75.4304 C215.1777,72.0884 216.1527,69.6514 218.1077,68.1204 C220.0577,66.5814 222.2887,65.8144 224.7887,65.8144 C227.2997,65.8144 229.5627,66.5814 231.5807,68.1204 C233.5987,69.6514 234.6157,72.0884 234.6157,75.4304 L234.6157,78.3634 L234.6157,110.9344 L249.0317,110.9344 L249.0317,78.3634 L249.0317,75.4304 C249.0317,72.0884 250.0417,69.6514 252.0607,68.1204 C254.0837,66.5814 256.3447,65.8144 258.8537,65.8144 C261.3607,65.8144 263.6287,66.5814 265.6427,68.1204 C267.6647,69.6514 268.6757,72.0884 268.6757,75.4304 L268.6757,103.8474 C268.6757,105.9264 269.3317,107.6364 270.6587,108.9514 C271.9817,110.2754 273.6917,110.9344 275.7797,110.9344 L283.0917,110.9344 L283.0917,78.3634 Z M194.4287,85.4624 C194.4287,94.3764 191.9207,101.1304 186.9117,105.7184 C182.3107,110.3084 175.2077,112.5984 165.5967,112.5984 C155.9837,112.5984 148.8747,110.3084 144.2817,105.7184 C139.2627,101.1304 136.7587,94.3764 136.7587,85.4624 L136.7587,46.8024 C136.7587,44.7144 137.4847,42.8674 138.9507,41.2624 C140.4137,39.6644 142.1887,38.8604 144.2817,38.8604 L151.7967,38.8604 L151.7967,83.7914 C151.7967,89.3644 152.8447,93.4764 154.9357,96.1194 C157.1637,98.6294 160.7157,99.8804 165.5967,99.8804 C170.3277,99.8804 173.8817,98.6294 176.2537,96.1194 C178.4777,93.6094 179.5957,89.5044 179.5957,83.7914 L179.5957,38.8604 L194.4287,38.8604 L194.4287,85.4624 Z" id="Fill-2" fill="#1268B2"></path>
            <g id="Group">
                <g id="Group-6" transform="translate(0.000000, 0.799000)">
                    <mask id="mask-2" fill="white">
                        <use xlink:href="#path-1"></use>
                    </mask>
                    <g id="Clip-5"></g>
                    <path d="M144.3453,18.207 C121.7193,-0.647 88.3403,-5.052 58.7203,6.685 L57.4163,4.394 C53.5953,5.961 49.8853,7.77 46.3843,9.772 C38.9373,13.997 32.1493,19.166 26.1933,25.123 C6.7343,44.581 -2.5457,71.23 1.3713,96.418 L2.1113,101.205 L6.7243,99.712 C15.4003,96.915 24.3483,94.83 33.3493,93.433 C34.1353,96.148 35.0123,98.846 36.0853,101.511 L38.0263,106.36 L42.3003,103.352 C55.0943,94.345 68.1563,87.52 81.1243,83.06 L81.8283,82.819 L84.5503,80.615 C85.4723,81.482 86.3673,82.372 87.3053,83.204 L92.4473,87.749 L94.0663,81.083 C96.9983,69.017 102.4923,57.1 110.0053,46.353 C110.3473,46.759 110.7133,47.15 111.0483,47.563 L114.1213,51.262 L117.3183,47.67 C119.8443,44.835 122.4673,42.118 125.2283,39.514 C131.0093,34.058 137.3083,29.125 143.9373,24.861 L148.6693,21.811 L144.3453,18.207 Z" id="Fill-4" fill="#FEFEFE" mask="url(#mask-2)"></path>
                </g>
                <path d="M108.995,41.4636 C91.624,25.4096 71.964,16.4876 57.066,16.7726 C54.582,32.8976 65.007,56.3946 84.928,76.1056 C86.609,77.7756 88.32,79.3716 90.051,80.9066 C93.353,67.3146 99.7,53.7916 108.995,41.4636" id="Fill-7" fill="#019D4A"></path>
                <path d="M79.7811,79.9519 C80.0271,79.7499 80.2671,79.5449 80.5151,79.3479 C79.2131,78.1209 77.9351,76.8689 76.6951,75.5489 C61.8011,59.7809 54.1141,39.9809 53.6401,20.5569 C33.3831,41.7979 28.8571,73.2039 39.9141,100.7719 C53.1791,91.4409 66.7591,84.4309 79.7811,79.9519" id="Fill-9" fill="#1268B2"></path>
                <path d="M58.2364,12.0954 C74.1024,15.0824 90.0134,22.6624 103.6924,34.8314 C107.5444,38.2564 111.0594,41.9064 114.2244,45.7224 C116.7974,42.8334 119.5174,40.0194 122.3904,37.3114 C128.4944,31.5474 134.9754,26.5054 141.7014,22.1784 C119.9384,4.0394 87.5154,-0.3326 58.2364,12.0954" id="Fill-11" fill="#FEC10E"></path>
                <path d="M48.4238,14.1579 C16.9518,32.0599 0.6388,65.5809 5.4548,96.5809 C15.2598,93.4169 25.2148,91.1469 35.2178,89.7369 C35.0138,89.0709 34.8178,88.4019 34.6248,87.7289 C25.8748,56.0699 36.3598,26.1279 58.9828,9.0179 C55.4118,10.4819 51.8838,12.1919 48.4238,14.1579" id="Fill-13" fill="#DD2027"></path>
            </g>
            <g id="Group-5" transform="translate(348.000000, 122.000000)" fill="#959398">
                <path d="M0.082,28.3342 L0.082,3.2322 C0.082,2.4172 0.367,1.7242 0.937,1.1542 C1.508,0.5832 2.201,0.2982 3.016,0.2982 L5.868,0.2982 L5.868,28.3342 L0.082,28.3342 Z" id="Fill-15"></path>
                <path d="M27.5664,28.3342 L24.7134,28.3342 C23.8984,28.3342 23.2324,28.0772 22.7164,27.5602 C22.2004,27.0442 21.9424,26.3782 21.9424,25.5632 L21.9424,14.4792 C21.9424,13.1752 21.5474,12.2252 20.7604,11.6262 C19.9724,11.0292 19.0894,10.7302 18.1124,10.7302 C17.1334,10.7302 16.2644,11.0292 15.5034,11.6262 C14.7434,12.2252 14.3634,13.1752 14.3634,14.4792 L14.3634,28.3342 L8.6584,28.3342 L8.6584,15.6202 C8.6584,11.9262 9.6224,9.4542 11.5514,8.2042 C13.4794,6.9542 15.6124,6.2752 17.9494,6.1662 C20.3394,6.1662 22.5404,6.7912 24.5504,8.0412 C26.5604,9.2912 27.5664,11.8172 27.5664,15.6202 L27.5664,28.3342 Z" id="Fill-17"></path>
                <path d="M40.667,28.3342 C38.874,28.4422 36.931,28.4162 34.84,28.2522 C32.747,28.0892 31.702,26.7592 31.702,24.2592 L31.702,0.2982 L34.636,0.2982 C35.341,0.2982 35.967,0.5702 36.511,1.1132 C37.053,1.6572 37.325,2.3092 37.325,3.0692 L37.325,6.7362 L40.667,6.7362 L40.667,7.8772 C40.667,8.6922 40.395,9.3582 39.852,9.8742 C39.308,10.3912 38.656,10.6482 37.896,10.6482 L37.325,10.6482 L37.325,22.7102 C37.325,23.6352 37.868,24.0962 38.955,24.0962 L40.667,24.0962 L40.667,28.3342 Z" id="Fill-19"></path>
                <path d="M48.999,15.2941 L57.312,15.2941 C57.202,13.8271 56.822,12.7411 56.171,12.0341 C55.464,11.2741 54.459,10.8931 53.155,10.8931 C51.959,10.8931 50.981,11.2741 50.221,12.0341 C49.46,12.7951 49.052,13.8821 48.999,15.2941 M58.778,21.6511 L62.853,21.6511 C62.255,23.9331 61.114,25.6721 59.431,26.8671 C57.746,28.1181 55.627,28.7421 53.073,28.7421 C49.977,28.7421 47.559,27.7371 45.82,25.7261 C44.081,23.7701 43.212,20.9721 43.212,17.3321 C43.212,13.8551 44.054,11.1381 45.738,9.1821 C47.477,7.1721 49.895,6.1661 52.992,6.1661 C56.252,6.1661 58.778,7.1441 60.571,9.1001 C62.31,11.1111 63.18,13.9091 63.18,17.4951 L63.18,18.0651 L63.18,18.3911 C63.18,18.6641 63.151,18.8531 63.099,18.9611 L48.999,18.9611 C49.052,20.6461 49.46,21.8961 50.221,22.7111 C50.927,23.5801 51.986,24.0151 53.399,24.0151 C54.323,24.0151 55.111,23.8251 55.764,23.4441 C55.926,23.3911 56.075,23.2951 56.212,23.1591 L56.66,22.7111 C56.713,22.5471 56.917,22.3311 57.27,22.0591 C57.624,21.7871 58.127,21.6511 58.778,21.6511" id="Fill-21"></path>
                <path d="M66.8662,0.298 L69.8012,0.298 C70.5602,0.298 71.2132,0.557 71.7572,1.072 C72.2992,1.59 72.5712,2.227 72.5712,2.987 L72.5712,28.334 L66.8662,28.334 L66.8662,0.298 Z" id="Fill-23"></path>
                <path d="M76.3389,0.298 L79.2739,0.298 C80.0329,0.298 80.6859,0.557 81.2299,1.072 C81.7719,1.59 82.0439,2.227 82.0439,2.987 L82.0439,28.334 L76.3389,28.334 L76.3389,0.298 Z" id="Fill-25"></path>
                <path d="M86.0566,6.655 L88.9906,6.655 C89.7506,6.655 90.4026,6.927 90.9466,7.47 C91.4896,8.014 91.7616,8.666 91.7616,9.426 L91.7616,28.334 L86.0566,28.334 L86.0566,6.655 Z M86.0566,0.298 L88.9906,0.298 C89.7506,0.298 90.4026,0.571 90.9466,1.113 C91.4896,1.657 91.7616,2.309 91.7616,3.069 L91.7616,4.78 L86.0566,4.78 L86.0566,0.298 Z" id="Fill-27"></path>
                <path d="M99.6045,17.6574 C99.6045,21.4064 100.6915,23.4854 102.8655,23.8924 C105.0375,24.3004 106.6405,23.7984 107.6725,22.3844 C108.1625,21.7874 108.5145,20.8504 108.7325,19.5734 C108.9495,18.2974 108.9625,17.0334 108.7735,15.7834 C108.5825,14.5334 108.1335,13.4194 107.4285,12.4414 C106.7215,11.4634 105.6895,10.9744 104.3325,10.9744 C102.4845,10.9744 101.2345,11.6544 100.5835,13.0114 C99.9305,14.3704 99.6045,15.9194 99.6045,17.6574 M108.8955,27.0304 L108.8955,25.6444 C107.9175,27.1664 106.5995,28.1174 104.9435,28.4974 C103.2855,28.8764 101.6425,28.7414 100.0125,28.0894 C98.3815,27.4374 96.9825,26.2294 95.8155,24.4634 C94.6455,22.6984 94.0625,20.3754 94.0625,17.4944 C94.0625,14.1264 94.8365,11.3964 96.3855,9.3034 C97.9335,7.2134 100.4195,6.1664 103.8425,6.1664 C106.4515,6.1664 108.8685,6.8724 111.0965,8.2854 C113.3235,9.6984 114.4375,12.3064 114.4375,16.1094 L114.4375,27.6004 C114.4375,31.4034 113.3235,33.9984 111.0965,35.3844 C108.8685,36.7694 106.4515,37.4624 103.8425,37.4624 C98.8425,37.4624 95.7465,35.1254 94.5515,30.4534 L100.5005,30.4534 C100.9355,31.2134 101.6015,31.7984 102.4985,32.2054 C103.3945,32.6134 104.2915,32.7214 105.1875,32.5314 C106.0835,32.3404 106.8995,31.8104 107.6325,30.9424 C108.3665,30.0724 108.7865,28.7684 108.8955,27.0304" id="Fill-29"></path>
                <path d="M123.3008,15.2941 L131.6138,15.2941 C131.5038,13.8271 131.1238,12.7411 130.4728,12.0341 C129.7658,11.2741 128.7608,10.8931 127.4568,10.8931 C126.2608,10.8931 125.2828,11.2741 124.5228,12.0341 C123.7618,12.7951 123.3538,13.8821 123.3008,15.2941 M133.0798,21.6511 L137.1548,21.6511 C136.5568,23.9331 135.4158,25.6721 133.7328,26.8671 C132.0478,28.1181 129.9288,28.7421 127.3748,28.7421 C124.2788,28.7421 121.8608,27.7371 120.1218,25.7261 C118.3828,23.7701 117.5138,20.9721 117.5138,17.3321 C117.5138,13.8551 118.3558,11.1381 120.0398,9.1821 C121.7788,7.1721 124.1968,6.1661 127.2938,6.1661 C130.5538,6.1661 133.0798,7.1441 134.8728,9.1001 C136.6118,11.1111 137.4818,13.9091 137.4818,17.4951 L137.4818,18.0651 L137.4818,18.3911 C137.4818,18.6641 137.4528,18.8531 137.4008,18.9611 L123.3008,18.9611 C123.3538,20.6461 123.7618,21.8961 124.5228,22.7111 C125.2288,23.5801 126.2878,24.0151 127.7008,24.0151 C128.6248,24.0151 129.4128,23.8251 130.0658,23.4441 C130.2278,23.3911 130.3768,23.2951 130.5138,23.1591 L130.9618,22.7111 C131.0148,22.5471 131.2188,22.3311 131.5718,22.0591 C131.9258,21.7871 132.4288,21.6511 133.0798,21.6511" id="Fill-31"></path>
                <path d="M159.832,28.3342 L156.979,28.3342 C156.164,28.3342 155.498,28.0772 154.982,27.5602 C154.466,27.0442 154.208,26.3782 154.208,25.5632 L154.208,14.4792 C154.208,13.1752 153.813,12.2252 153.026,11.6262 C152.238,11.0292 151.355,10.7302 150.378,10.7302 C149.399,10.7302 148.53,11.0292 147.769,11.6262 C147.009,12.2252 146.629,13.1752 146.629,14.4792 L146.629,28.3342 L140.924,28.3342 L140.924,15.6202 C140.924,11.9262 141.888,9.4542 143.817,8.2042 C145.745,6.9542 147.878,6.2752 150.215,6.1662 C152.605,6.1662 154.806,6.7912 156.816,8.0412 C158.826,9.2912 159.832,11.8172 159.832,15.6202 L159.832,28.3342 Z" id="Fill-33"></path>
                <path d="M172.9326,28.3342 C171.1396,28.4422 169.1966,28.4162 167.1056,28.2522 C165.0126,28.0892 163.9676,26.7592 163.9676,24.2592 L163.9676,0.2982 L166.9016,0.2982 C167.6066,0.2982 168.2326,0.5702 168.7766,1.1132 C169.3186,1.6572 169.5906,2.3092 169.5906,3.0692 L169.5906,6.7362 L172.9326,6.7362 L172.9326,7.8772 C172.9326,8.6922 172.6606,9.3582 172.1176,9.8742 C171.5736,10.3912 170.9216,10.6482 170.1616,10.6482 L169.5906,10.6482 L169.5906,22.7102 C169.5906,23.6352 170.1336,24.0962 171.2206,24.0962 L172.9326,24.0962 L172.9326,28.3342 Z" id="Fill-35"></path>
            </g>
        </g>
    </g>
</svg>