<?xml version="1.0" encoding="UTF-8"?>
<svg width="37px" height="70px" viewBox="0 0 37 70" version="1.1" xmlns="http://www.w3.org/2000/svg" xmlns:xlink="http://www.w3.org/1999/xlink">
    <!-- Generator: Sketch 46.2 (44496) - http://www.bohemiancoding.com/sketch -->
    <title>adb</title>
    <desc>Created with Sketch.</desc>
    <defs>
        <polygon id="path-1" points="36.779661 70 0 70 0 8.5678398e-15 36.779661 0"></polygon>
    </defs>
    <g id="Home" stroke="none" stroke-width="1" fill="none" fill-rule="evenodd">
        <g id="Umbrella---Home" transform="translate(-987.000000, -1308.000000)">
            <g id="BENEFICIOS" transform="translate(178.000000, 1300.000000)">
                <g id="adb" transform="translate(809.000000, 8.000000)">
                    <mask id="mask-2" fill="white">
                        <use xlink:href="#path-1"></use>
                    </mask>
                    <g id="Clip-2"></g>
                    <path d="M11.4685248,27.4460182 L25.29321,27.4460182 C25.8757349,27.4460182 26.34769,26.97364 26.34769,26.3909297 C26.34769,25.8082194 25.8757349,25.3358411 25.29321,25.3358411 L11.4685248,25.3358411 C10.8861506,25.3358411 10.4140448,25.8082194 10.4140448,26.3909297 C10.4140448,26.97364 10.8861506,27.4460182 11.4685248,27.4460182 L11.4685248,27.4460182 Z M29.3061091,30.9127377 L7.45562576,30.9127377 C6.8732515,30.9127377 6.40114572,31.3851159 6.40114572,31.9678263 C6.40114572,32.5505366 6.8732515,33.0229148 7.45562576,33.0229148 L29.3061091,33.0229148 C29.8884834,33.0229148 30.3605891,32.5505366 30.3605891,31.9678263 C30.3605891,31.3851159 29.8884834,30.9127377 29.3061091,30.9127377 L29.3061091,30.9127377 Z M25.29321,41.9158039 L11.4685248,41.9158039 C10.8861506,41.9158039 10.4140448,42.3881821 10.4140448,42.9708925 C10.4140448,43.5536028 10.8861506,44.025981 11.4685248,44.025981 L25.29321,44.025981 C25.8757349,44.025981 26.34769,43.5536028 26.34769,42.9708925 C26.34769,42.3881821 25.8757349,41.9158039 25.29321,41.9158039 L25.29321,41.9158039 Z M29.3061091,36.3389074 L7.45562576,36.3389074 C6.8732515,36.3389074 6.40114572,36.8112856 6.40114572,37.3939959 C6.40114572,37.9767062 6.8732515,38.4490844 7.45562576,38.4490844 L29.3061091,38.4490844 C29.8884834,38.4490844 30.3605891,37.9767062 30.3605891,37.3939959 C30.3605891,36.8112856 29.8884834,36.3389074 29.3061091,36.3389074 L29.3061091,36.3389074 Z M25.29321,61.2088515 C25.8757349,61.2088515 26.34769,60.7364733 26.34769,60.153763 C26.34769,59.5710527 25.8757349,59.0986745 25.29321,59.0986745 L11.4685248,59.0986745 C10.8861506,59.0986745 10.4140448,59.5710527 10.4140448,60.153763 C10.4140448,60.7364733 10.8861506,61.2088515 11.4685248,61.2088515 L25.29321,61.2088515 Z M29.3061091,64.826298 L7.45562576,64.826298 C6.8732515,64.826298 6.40114572,65.2986762 6.40114572,65.8813865 C6.40114572,66.4640968 6.8732515,66.9364751 7.45562576,66.9364751 L29.3061091,66.9364751 C29.8884834,66.9364751 30.3605891,66.4640968 30.3605891,65.8813865 C30.3605891,65.2986762 29.8884834,64.826298 29.3061091,64.826298 L29.3061091,64.826298 Z M11.4685248,7.85151674 C10.8861506,7.85151674 10.4140448,8.32389496 10.4140448,8.90660528 C10.4140448,9.48931561 10.8861506,9.96169383 11.4685248,9.96169383 L25.29321,9.96169383 C25.8757349,9.96169383 26.34769,9.48931561 26.34769,8.90660528 C26.34769,8.32389496 25.8757349,7.85151674 25.29321,7.85151674 L11.4685248,7.85151674 Z M7.45562576,4.23407032 L29.3061091,4.23407032 C29.8884834,4.23407032 30.3605891,3.7616921 30.3605891,3.17898177 C30.3605891,2.59627145 29.8884834,2.12389323 29.3061091,2.12389323 L7.45562576,2.12389323 C6.8732515,2.12389323 6.40114572,2.59627145 6.40114572,3.17898177 C6.40114572,3.7616921 6.8732515,4.23407032 7.45562576,4.23407032 L7.45562576,4.23407032 Z M18.3898305,50.508445 C9.99165024,46.2235797 2.10896007,42.1512394 2.10896007,35 C2.10896007,31.5162484 3.74460924,28.5404465 7.25602775,25.6347327 C10.2840425,23.1293495 14.3653321,20.9890271 18.3898305,18.9323581 C22.4144795,20.9890271 26.4957692,23.1293495 29.5236333,25.6347327 C33.0352024,28.5404465 34.6707009,31.5162484 34.6707009,35 C34.6707009,42.1512394 26.7881614,46.2235797 18.3898305,50.508445 L18.3898305,50.508445 Z M36.779661,35 C36.779661,26.6646498 28.9350828,22.0004048 20.7050167,17.7491516 C28.8540384,13.5639168 36.779661,9.04783642 36.779661,1.05508854 C36.779661,0.472227486 36.3077059,0 35.725181,0 C35.1428067,0 34.6707009,0.472227486 34.6707009,1.05508854 C34.6707009,8.20632795 26.7881614,12.2786683 18.3898305,16.5635336 C9.99165024,12.2786683 2.10896007,8.20632795 2.10896007,1.05508854 C2.10896007,0.472227486 1.63685429,0 1.05448003,0 C0.472105775,0 0,0.472227486 0,1.05508854 C0,9.04783642 7.92562257,13.5639168 16.0746443,17.7491516 C7.84457825,22.0004048 0,26.6646498 0,35 C0,42.9925972 7.92577321,47.5088283 16.0747949,51.6940631 C7.84472889,55.9453163 0,60.6095613 0,68.9449115 C0,69.5276218 0.472105775,70 1.05448003,70 C1.63685429,70 2.10896007,69.5276218 2.10896007,68.9449115 C2.10896007,65.4611598 3.74460924,62.485358 7.25602775,59.5796441 C10.2840425,57.074261 14.3653321,54.9339385 18.3898305,52.8772695 C22.4144795,54.9339385 26.4957692,57.074261 29.5236333,59.5796441 C33.0352024,62.485358 34.6707009,65.4611598 34.6707009,68.9449115 C34.6707009,69.5276218 35.1428067,70 35.725181,70 C36.3077059,70 36.779661,69.5276218 36.779661,68.9449115 C36.779661,60.6095613 28.9350828,55.9453163 20.7050167,51.6940631 C28.8540384,47.5088283 36.779661,42.9925972 36.779661,35 L36.779661,35 Z" id="Fill-1" fill="#222222" mask="url(#mask-2)"></path>
                </g>
            </g>
        </g>
    </g>
</svg>