<?xml version="1.0" encoding="UTF-8"?>
<svg width="58px" height="70px" viewBox="0 0 58 70" version="1.1" xmlns="http://www.w3.org/2000/svg" xmlns:xlink="http://www.w3.org/1999/xlink">
    <!-- Generator: Sketch 46.2 (44496) - http://www.bohemiancoding.com/sketch -->
    <title>previene</title>
    <desc>Created with Sketch.</desc>
    <defs>
        <polygon id="path-1" points="28.648642 0.0890422255 57.2972563 0.0890422255 57.2972563 69.9617486 28.648642 69.9617486 2.76599355e-05 69.9617486 2.76599355e-05 0.0890422255 28.648642 0.0890422255"></polygon>
    </defs>
    <g id="Home" stroke="none" stroke-width="1" fill="none" fill-rule="evenodd">
        <g id="Umbrella---Home" transform="translate(-586.000000, -1308.000000)">
            <g id="BENEFICIOS" transform="translate(178.000000, 1300.000000)">
                <g id="previene" transform="translate(408.000000, 8.000000)">
                    <g id="Group-3">
                        <mask id="mask-2" fill="white">
                            <use xlink:href="#path-1"></use>
                        </mask>
                        <g id="Clip-2"></g>
                        <path d="M6.17737228,10.7132142 C5.09048745,10.7132142 4.22668865,10.7768157 3.60992142,10.9025304 C2.55996957,11.11634 1.83930297,12.0493888 1.89679936,13.1208726 L3.45447822,39.6343455 C3.80919716,46.5362006 7.23341198,52.7928378 12.8491189,56.8067747 L28.6488581,67.8585659 L44.4561734,56.8012265 C50.064169,52.7928378 53.4883838,46.5362006 53.8426969,39.641247 L55.400511,13.1257442 C55.4569252,12.0727996 54.7169127,11.1185051 53.6790013,10.9105144 C53.1156719,10.7977907 52.3419733,10.7406846 51.3795513,10.7406846 C51.1906925,10.7406846 50.9987222,10.7428498 50.8041814,10.7470448 C50.6081525,10.7512398 50.4118531,10.7532696 50.2159595,10.7532696 C44.6396207,10.7534049 39.3095018,9.090697 34.8020549,5.94498944 L29.5107629,2.25230821 C29.2585905,2.07652424 28.9629914,1.98355766 28.6556224,1.98355766 C28.34663,1.98355766 28.0495427,2.0774715 27.7966939,2.25501466 L22.6601687,5.86420189 C18.1337818,9.04455202 12.8424899,10.7255285 7.35828063,10.7256638 C7.17740373,10.7256638 6.99639154,10.7237693 6.81524407,10.7199803 C6.59973405,10.7155146 6.38665917,10.7132142 6.17737228,10.7132142 M28.6488581,69.9617486 C28.4589171,69.9617486 28.2691113,69.9047778 28.1060921,69.790701 L11.7558756,58.3537819 C8.7782387,56.2254291 6.28181279,53.4105852 4.52905205,50.2079068 C2.77629131,47.0052285 1.75069087,43.3849448 1.56318498,39.7385439 L0.0057766968,13.2271008 C-0.100828387,11.2377243 1.28639056,9.44240026 3.23206863,9.04604057 C3.97289279,8.89515594 4.9638601,8.81869871 6.17737228,8.81869871 C6.39964659,8.81869871 6.62570889,8.82113452 6.85434162,8.82587081 C12.1218233,8.93629399 17.2269622,7.36655263 21.5715252,4.31394697 L26.7080503,0.704759743 C27.2813909,0.301904567 27.9549781,0.0890422255 28.6556224,0.0890422255 C29.3524787,0.0890422255 30.0229544,0.299739407 30.5942656,0.698534906 L35.8856928,4.39121614 C40.0738657,7.31404749 45.0292434,8.85888951 50.2159595,8.85875418 C50.3983245,8.85875418 50.5812307,8.85685967 50.763731,8.85293531 C50.9719356,8.84846967 51.1775698,8.84616919 51.3795513,8.84616919 C52.4664361,8.84616919 53.3652739,8.91572497 54.0506309,9.05294202 C56.0049673,9.44415945 57.3982741,11.2408367 57.2915337,13.2319724 L55.7338549,39.7455806 C55.5468901,43.3849448 54.5212897,47.0052285 52.7685289,50.2079068 C51.0156329,53.4105852 48.5193423,56.2254291 45.5494166,58.3482337 L29.1914888,69.790701 C29.0284696,69.9047778 28.8386639,69.9617486 28.6488581,69.9617486" id="Fill-1" fill="#222222" mask="url(#mask-2)"></path>
                    </g>
                    <path d="M27.7083333,20.4073367 C20.4327134,20.4073367 14.513531,26.5174605 14.513531,34.0277778 C14.513531,41.5380951 20.4327134,47.6482189 27.7083333,47.6482189 C34.9839532,47.6482189 40.9031357,41.5380951 40.9031357,34.0277778 C40.9031357,26.5174605 34.9839532,20.4073367 27.7083333,20.4073367 M27.7083333,49.5833333 C19.3989822,49.5833333 12.6388889,42.6051725 12.6388889,34.0277778 C12.6388889,25.4503831 19.3989822,18.4722222 27.7083333,18.4722222 C36.0176845,18.4722222 42.7777778,25.4503831 42.7777778,34.0277778 C42.7777778,42.6051725 36.0176845,49.5833333 27.7083333,49.5833333" id="Fill-4" fill="#222222"></path>
                    <path d="M26.0139382,39.8611111 C25.774619,39.8611111 25.5443454,39.7656633 25.3742893,39.5945333 L21.6538586,35.8506111 C21.3005657,35.4950874 21.3005657,34.9187593 21.6538586,34.5632356 C22.0071516,34.2078419 22.5798635,34.2078419 22.9331564,34.5632356 L25.9415739,37.5907788 L32.418956,29.5056701 C32.7325778,29.1141259 33.3018007,29.052878 33.6908881,29.3683501 C34.0798464,29.6838221 34.1409684,30.2568993 33.8273466,30.6483135 L26.7180689,39.5221022 C26.5570583,39.7232709 26.3185144,39.8460267 26.0622672,39.8598107 C26.0461145,39.860721 26.0299617,39.8611111 26.0139382,39.8611111" id="Fill-6" fill="#222222"></path>
                </g>
            </g>
        </g>
    </g>
</svg>