<?xml version="1.0" encoding="UTF-8"?>
<svg width="69px" height="79px" viewBox="0 0 69 79" version="1.1" xmlns="http://www.w3.org/2000/svg" xmlns:xlink="http://www.w3.org/1999/xlink">
    <!-- Generator: Sketch 46.2 (44496) - http://www.bohemiancoding.com/sketch -->
    <title>protege</title>
    <desc>Created with Sketch.</desc>
    <defs></defs>
    <g id="Home" stroke="none" stroke-width="1" fill="none" fill-rule="evenodd">
        <g id="Umbrella---Home" transform="translate(-178.000000, -1299.000000)">
            <g id="BENEFICIOS" transform="translate(178.000000, 1300.000000)">
                <g id="protege">
                    <path d="M0,77 L69,77" id="Stroke-1" stroke="#000000" stroke-width="2" stroke-linejoin="round"></path>
                    <path d="M46,21.5 C46,28.4035088 40.4035088,34 33.5,34 C26.5964912,34 21,28.4035088 21,21.5 C21,14.5964912 26.5964912,9 33.5,9 C40.4035088,9 46,14.5964912 46,21.5 Z" id="Stroke-3" stroke="#000000" stroke-width="2" stroke-linejoin="round"></path>
                    <path d="M33,0 L33,9" id="Stroke-5" stroke="#000000" stroke-width="2" stroke-linecap="round" stroke-linejoin="round"></path>
                    <path d="M33,34 L33,42" id="Stroke-7" stroke="#000000" stroke-width="2" stroke-linecap="round" stroke-linejoin="round"></path>
                    <path d="M55,21 L46,21" id="Stroke-9" stroke="#000000" stroke-width="2" stroke-linecap="round" stroke-linejoin="round"></path>
                    <path d="M21,21 L12,21" id="Stroke-11" stroke="#000000" stroke-width="2" stroke-linecap="round" stroke-linejoin="round"></path>
                    <path d="M48,36 L43,31" id="Stroke-13" stroke="#000000" stroke-width="2" stroke-linecap="round" stroke-linejoin="round"></path>
                    <path d="M24,12 L18,6" id="Stroke-15" stroke="#000000" stroke-width="2" stroke-linecap="round" stroke-linejoin="round"></path>
                    <path d="M18,36 L24,30" id="Stroke-17" stroke="#000000" stroke-width="2" stroke-linecap="round" stroke-linejoin="round"></path>
                    <path d="M42,12 L48,6" id="Stroke-19" stroke="#000000" stroke-width="2" stroke-linecap="round" stroke-linejoin="round"></path>
                    <polyline id="Stroke-21" stroke="#000000" stroke-width="2" stroke-linejoin="round" points="37 67.1578947 39.952381 70 68 43"></polyline>
                    <polyline id="Stroke-23" stroke="#000000" stroke-width="2" stroke-linecap="round" stroke-linejoin="round" points="67 50 67 43 60 43"></polyline>
                    <path d="M32,63 L30,61" id="Stroke-25" stroke="#000000" stroke-width="2" stroke-linejoin="round"></path>
                    <path d="M28,58 L23,54" id="Stroke-27" stroke="#000000" stroke-width="2" stroke-linejoin="round"></path>
                    <path d="M21,51 L16,47" id="Stroke-29" stroke="#000000" stroke-width="2" stroke-linejoin="round"></path>
                    <polyline id="Stroke-31" stroke="#000000" stroke-width="2" stroke-linejoin="round" points="23 67.1578947 25.8571429 70 53 43"></polyline>
                    <polyline id="Stroke-33" stroke="#000000" stroke-width="2" stroke-linecap="round" stroke-linejoin="round" points="53 50 53 43 46 43"></polyline>
                    <path d="M21,65 L16,61" id="Stroke-35" stroke="#000000" stroke-width="2" stroke-linejoin="round"></path>
                    <path d="M14,58 L9,54" id="Stroke-37" stroke="#000000" stroke-width="2" stroke-linejoin="round"></path>
                    <path d="M5,51 L1,47" id="Stroke-39" stroke="#000000" stroke-width="2" stroke-linejoin="round"></path>
                    <path d="M33,18 L33,23.1066228 C33,23.6890559 32.8798799,24.1988414 32.6396396,24.6372319 C32.3993994,25.0731173 32.0534535,25.4113042 31.5993994,25.64553 C31.1453453,25.8822608 30.6024024,26 29.9717718,26 C29.0324324,26 28.3021021,25.7407233 27.781982,25.2234226 C27.2606607,24.7048693 27,23.9921716 27,23.0853296 L27,18 L28.242042,18 L28.242042,22.9926413 C28.242042,23.6452168 28.3873874,24.1249413 28.6768769,24.4343197 C28.9675676,24.7436981 29.412012,24.8990136 30.0126126,24.8990136 C31.178979,24.8990136 31.7627628,24.2602161 31.7627628,22.9826209 L31.7627628,18 L33,18 Z" id="Fill-41" fill="#000000"></path>
                    <path d="M39.8319068,18 L41,18 L38.5884174,26 L37.4017483,26 L35,18 L36.158259,18 L37.5951557,22.9731789 C37.6705518,23.2106015 37.7503187,23.5165847 37.8355491,23.8911284 C37.9196868,24.2644025 37.9743216,24.5424536 38.0005463,24.7252817 C38.0409761,24.4472306 38.1032599,24.1260117 38.1884903,23.7616251 C38.2737206,23.3972385 38.3425606,23.1268053 38.3961027,22.951595 L39.8319068,18 Z" id="Fill-43" fill="#000000"></path>
                </g>
            </g>
        </g>
    </g>
</svg>